<?xml version="1.0" encoding="utf-8"?>
<svg version="1.1" id="Capa_1" xmlns="http://www.w3.org/2000/svg" xmlns:xlink="http://www.w3.org/1999/xlink" x="0px" y="0px"
	 width="200px" height="200px" viewBox="0 0 200 200" style="enable-background:new 0 0 200 200;" xml:space="preserve">
<style type="text/css">
	.st0{fill:#8B72B6;}
</style>
<path class="st0" d="M133.8,51c14.8,7.1,32.3,14.2,39.7,26.9c7.4,12.8,4.7,31.2-6.3,41.2c-11,10.1-30.4,11.9-43.9,19
	c-13.5,7.2-21.1,19.8-32.9,25.6s-27.9,4.7-39.9-2.9c-12.1-7.6-20.2-21.9-24.5-36.9c-4.4-15-4.9-30.9-1-46
	c3.9-15.2,12.3-29.5,24.7-37.4C62,32.6,78.3,31.2,92.5,34C106.8,36.9,118.9,43.9,133.8,51z"/>
</svg>
