<?xml version="1.0" encoding="utf-8"?>
<svg version="1.1" id="Capa_1" xmlns="http://www.w3.org/2000/svg" xmlns:xlink="http://www.w3.org/1999/xlink" x="0px" y="0px"
	 width="200px" height="200px" viewBox="0 0 200 200" style="enable-background:new 0 0 200 200;" xml:space="preserve">
<style type="text/css">
	.st0{fill:#8B72B6;}
</style>
<path class="st0" d="M143.6,32.5c13.8,6.9,24.5,21.3,22.8,35.1c-1.6,13.9-15.7,27.3-22.3,41.8c-6.6,14.4-5.8,29.9-12.6,42.9
	c-6.8,13-21.2,23.5-34,21.1c-12.7-2.4-23.6-17.7-36.1-28.9c-12.5-11.1-26.4-18.1-27.9-27.9S43,94.2,47.1,78.5
	c4-15.6,1.2-34.2,8.1-43.3c7-9.1,23.8-8.6,40.7-8.8C112.8,26.3,129.7,25.7,143.6,32.5z"/>
</svg>
