<?xml version="1.0" encoding="utf-8"?>
<svg version="1.1" id="Capa_1" xmlns="http://www.w3.org/2000/svg" xmlns:xlink="http://www.w3.org/1999/xlink" x="0px" y="0px"
	 width="200px" height="200px" viewBox="0 0 200 200" style="enable-background:new 0 0 200 200;" xml:space="preserve">
<style type="text/css">
	.st0{fill:#8B72B6;}
</style>
<path class="st0" d="M156.1,17c15.7,11.3,24.8,33.8,31.4,57c6.6,23.2,10.7,47.1,3.2,65.2c-7.4,18.3-26.2,30.9-43.9,39.8
	c-17.8,8.9-34.5,14.5-50.8,14c-16.4-0.6-32.5-7-48.7-16.5c-16.4-9.5-33.2-22.1-39.2-39.1C2,120.2,6.7,98.5,13.7,78.7
	C20.8,58.9,30.3,40.9,44.5,29c14-11.9,32.6-17.6,53.1-20.4C117.9,5.8,140.3,5.8,156.1,17z"/>
</svg>
