<?xml version="1.0" encoding="utf-8"?>
<svg version="1.1" id="Capa_1" xmlns="http://www.w3.org/2000/svg" xmlns:xlink="http://www.w3.org/1999/xlink" x="0px" y="0px"
	 width="200px" height="200px" viewBox="0 0 200 200" style="enable-background:new 0 0 200 200;" xml:space="preserve">
<style type="text/css">
	.st0{fill:#8B72B6;}
</style>
<path class="st0" d="M148.2,43.3c10.4,11.6,15.6,26.2,20.1,40.9c4.4,14.6,8.1,29.3,3.7,40.9c-4.4,11.6-16.9,20.1-29.2,28.9
	c-12.2,8.7-24.2,17.6-38.8,21.4c-14.6,3.7-32,2.1-44-6.7s-18.6-24.9-24.7-41.6c-6.2-16.7-11.8-34.2-7.9-49.2
	c3.9-15,17.4-27.6,32.2-37.7s30.9-17.8,46.8-17.4C122.2,23.3,137.8,31.8,148.2,43.3z"/>
</svg>
