<?xml version="1.0" encoding="utf-8"?>
<!-- Generator: Adobe Illustrator 22.0.0, SVG Export Plug-In . SVG Version: 6.00 Build 0)  -->
<svg version="1.1" id="Capa_1" xmlns="http://www.w3.org/2000/svg" xmlns:xlink="http://www.w3.org/1999/xlink" x="0px" y="0px"
	 width="200px" height="200px" viewBox="0 0 200 200" style="enable-background:new 0 0 200 200;" xml:space="preserve">
<style type="text/css">
	.st0{fill:#8B72B6;}
</style>
<path class="st0" d="M160.2,25.7c13.5,14,17.9,36.1,25.5,56.2c6.4,16.8,7,37.5,5.5,50.9c-1.7,14.8-8.5,35.8-27,48.2
	s-48,13.8-65.6,12.6c-17.7-1.1-47.7-6.5-61.4-20.2s-16.9-21.3-24-42.5c-5.2-15.6-7-39.1-2.5-53.2c4.6-14,16.6-23.9,33.7-37
	c16.9-13,26.4-32,51.8-34.5C114,4.4,146.7,11.7,160.2,25.7z"/>
</svg>
