<?xml version="1.0" encoding="utf-8"?>
<svg version="1.1" id="Capa_1" xmlns="http://www.w3.org/2000/svg" xmlns:xlink="http://www.w3.org/1999/xlink" x="0px" y="0px"
	 width="200px" height="200px" viewBox="0 0 200 200" style="enable-background:new 0 0 200 200;" xml:space="preserve">
<style type="text/css">
	.st0{fill:#8B72B6;}
</style>
<path class="st0" d="M154.6,34.9c15.8,7.5,27.2,25.9,27.4,43.8c0.2,17.9-10.8,35.3-23.1,47.6c-12.3,12.2-25.9,19.3-41.4,27.8
	c-15.6,8.6-33,18.6-46.5,15c-13.6-3.7-23.3-20.9-33.4-38.1c-10.1-17.1-20.5-34.2-19.5-50.9c1.1-16.6,13.6-32.8,29-40.5
	c15.3-7.6,33.5-6.7,52.6-7.8C118.8,30.6,138.9,27.3,154.6,34.9z"/>
</svg>
