<?xml version="1.0" encoding="utf-8"?>
<svg version="1.1" id="Capa_1" xmlns="http://www.w3.org/2000/svg" xmlns:xlink="http://www.w3.org/1999/xlink" x="0px" y="0px"
	 width="200px" height="200px" viewBox="0 0 200 200" style="enable-background:new 0 0 200 200;" xml:space="preserve">
<style type="text/css">
	.st0{fill:#8B72B6;}
</style>
<path class="st0" d="M127.9,78.6c13.6,6.9,31.2,13.3,35.8,24.1c4.5,10.9-4.2,26.3-14.8,36.8c-10.5,10.5-23,16.1-34.5,16.9
	c-11.4,0.9-21.8-3.1-37-4.1c-15.3-1-35.5,1-40.8-6.5c-5.4-7.5,4-24.5,4.7-45.3c0.8-20.9-7.2-45.9,0.4-53.9c7.6-7.9,30.8,0.9,47,9.2
	C105.1,64,114.4,71.6,127.9,78.6z"/>
</svg>
