<?xml version="1.0" encoding="utf-8"?>
<svg version="1.1" id="Capa_1" xmlns="http://www.w3.org/2000/svg" xmlns:xlink="http://www.w3.org/1999/xlink" x="0px" y="0px"
	 width="200px" height="200px" viewBox="0 0 200 200" style="enable-background:new 0 0 200 200;" xml:space="preserve">
<style type="text/css">
	.st0{fill:#8B72B6;}
</style>
<path class="st0" d="M122.1,39.7c13.8,3.3,31.5,6.1,39.6,15.7c8,9.6,6.4,26-1.9,37.1S136.5,109.4,128,123
	c-8.4,13.6-10.4,34.9-19.2,41.3c-8.8,6.3-24.4-2.3-35.4-12.2c-11-9.9-17.3-21-22.3-30.9c-5.1-10-8.7-18.8-12.5-29
	c-3.8-10.3-7.8-22.1-4-30.2s15.5-12.6,25.7-17.4c10.3-4.9,19.2-10.1,28.6-10.9S108.3,36.5,122.1,39.7z"/>
</svg>
