<?xml version="1.0" encoding="utf-8"?>
<svg version="1.1" id="Capa_1" xmlns="http://www.w3.org/2000/svg" xmlns:xlink="http://www.w3.org/1999/xlink" x="0px" y="0px"
	 width="200px" height="200px" viewBox="0 0 200 200" style="enable-background:new 0 0 200 200;" xml:space="preserve">
<style type="text/css">
	.st0{fill:#8B72B6;}
</style>
<path class="st0" d="M155.9,24.7c19.1,13.8,31.9,34.7,36.8,57.3c4.8,22.5,1.5,46.7-12.1,63.4c-13.5,16.8-37.2,26.2-62.2,35.3
	c-25,9.3-51,18.3-71.3,12.1c-20.3-6.1-34.8-27.4-39.7-47.5C2.5,125,7.2,105.9,9.8,85.5c2.6-20.5,3-42.4,15.4-57.1
	c12.3-14.9,36.4-22.4,61.2-23C111.3,4.6,136.6,11,155.9,24.7z"/>
</svg>
