<?xml version="1.0" encoding="utf-8"?>
<!-- Generator: Adobe Illustrator 22.0.0, SVG Export Plug-In . SVG Version: 6.00 Build 0)  -->
<svg version="1.1" id="Capa_1" xmlns="http://www.w3.org/2000/svg" xmlns:xlink="http://www.w3.org/1999/xlink" x="0px" y="0px"
	 width="70px" height="70px" viewBox="0 0 70 70" style="enable-background:new 0 0 70 70;" xml:space="preserve">
<style type="text/css">
	.st0{fill:none;stroke:#000000;stroke-width:3.8492;stroke-miterlimit:10;}
	.st1{fill:none;stroke:#000000;stroke-width:3.8492;stroke-linecap:round;stroke-linejoin:round;stroke-miterlimit:10;}
</style>
<circle class="st0" cx="35" cy="35" r="29.7"/>
<path class="st1" d="M20.1,4.8c0,0-5.8,6.2-5.7,10.7s3.7,5.7,5.7,5.7s5.6-1.2,5.7-5.7S20.1,4.8,20.1,4.8z"/>
<path class="st1" d="M48.9,53.3c0,0-2.3-11-13.9-11s-13.9,11-13.9,11"/>
<g>
	<path class="st1" d="M49.7,31c0,0-0.7-1.5-4.5-1.5S40.8,31,40.8,31"/>
	<path class="st1" d="M29.2,31c0,0-0.7-1.5-4.5-1.5S20.3,31,20.3,31"/>
</g>
</svg>
