<?xml version="1.0" encoding="utf-8"?>
<svg version="1.1" id="Capa_1" xmlns="http://www.w3.org/2000/svg" xmlns:xlink="http://www.w3.org/1999/xlink" x="0px" y="0px"
	 width="100px" height="100px" viewBox="0 0 100 100" style="enable-background:new 0 0 100 100;" xml:space="preserve">
<style type="text/css">
	.st0{fill:#EC6E4C;}
	.st1{fill:none;stroke:#000000;stroke-width:3;stroke-linecap:round;stroke-linejoin:round;stroke-miterlimit:10;}
	.st2{fill:#2BDEE2;}
</style>
<g>
	<circle class="st0" cx="47.4" cy="52.6" r="15.8"/>
	<g>
		<circle class="st1" cx="44.3" cy="49.6" r="15.8"/>
		<line class="st1" x1="36.7" y1="35.7" x2="28.8" y2="21.1"/>
		<line class="st1" x1="48.8" y1="34.4" x2="53.5" y2="18.5"/>
		<line class="st1" x1="58.2" y1="42" x2="72.8" y2="34"/>
		<line class="st1" x1="30.4" y1="57.2" x2="15.9" y2="65.2"/>
		<line class="st1" x1="29.1" y1="45.2" x2="13.2" y2="40.5"/>
	</g>
	<path class="st2" d="M49.1,81.2c-4.4,0.3-8.8,0.7-13.2-0.1c-1.4-0.3-2.9-0.7-4-1.6c-1.5-1.2-2.1-3.2-2.4-5.1
		c-0.2-1.4-0.3-2.8,0-4.1c0.8-3.4,4.5-5.8,8-5.2c-0.9-3.5,0-7.7,2.8-10s7.7-2,9.6,1.1c0-1.2,0.2-2.3,0.6-3.4
		c2-6.1,8.9-10.3,15.1-8.8c6,1.5,10.1,8.2,8.7,14.2c2-1.5,4.8,0,6.8,1.4c3.7,2.6,5.7,6.9,5.7,11.4c0,9-8.6,9.5-15.2,9.4
		C64.1,80.4,56.6,80.7,49.1,81.2z"/>
	<path class="st1" d="M28.9,76.5c-1.5-1.2-2.1-3.2-2.4-5.1c-0.2-1.4-0.3-2.8,0-4.1c0.8-3.4,4.5-5.8,8-5.2c-0.9-3.5,0-7.7,2.8-10
		s7.7-2,9.6,1.1c0-1.2,0.2-2.3,0.6-3.4c2-6.1,8.9-10.3,15.1-8.8c6,1.5,10.1,8.2,8.7,14.2c2-1.5,4.8,0,6.8,1.4
		c3.7,2.6,5.7,6.9,5.7,11.4c0,2.7-0.7,4.6-2,6"/>
</g>
</svg>
