<?xml version="1.0" encoding="utf-8"?>
<svg version="1.1" id="Capa_1" xmlns="http://www.w3.org/2000/svg" xmlns:xlink="http://www.w3.org/1999/xlink" x="0px" y="0px"
	 width="100px" height="100px" viewBox="0 0 100 100" style="enable-background:new 0 0 100 100;" xml:space="preserve">
<style type="text/css">
	.st0{fill:#2BDEE2;}
	.st1{fill:none;stroke:#000000;stroke-width:3;stroke-linecap:round;stroke-linejoin:round;stroke-miterlimit:10;}
</style>
<g>
	<path class="st0" d="M42.5,70.1c-4.4,0.3-8.8,0.7-13.2-0.1c-1.4-0.3-2.9-0.7-4-1.6c-1.5-1.2-2.1-3.2-2.4-5.1
		c-0.2-1.4-0.3-2.8,0-4.1c0.8-3.4,4.5-5.8,8-5.2c-0.9-3.5,0-7.7,2.8-10s7.7-2,9.6,1.1c0-1.2,0.2-2.3,0.6-3.4
		c2-6.1,8.9-10.3,15.1-8.8c6,1.5,10.1,8.2,8.7,14.2c2-1.5,4.8,0,6.8,1.4c3.7,2.6,5.7,6.9,5.7,11.4c0,9-8.6,9.5-15.2,9.4
		C57.5,69.3,50,69.6,42.5,70.1z"/>
	<path class="st1" d="M22.4,65.3c-1.5-1.2-2.1-3.2-2.4-5.1c-0.2-1.4-0.3-2.8,0-4.1c0.8-3.4,4.5-5.8,8-5.2c-0.9-3.5,0-7.7,2.8-10
		c2.8-2.3,7.7-2,9.6,1.1c0-1.2,0.2-2.3,0.6-3.4c2-6.1,8.9-10.3,15.1-8.8c6,1.5,10.1,8.2,8.7,14.2c2-1.5,4.8,0,6.8,1.4
		c3.7,2.6,5.7,6.9,5.7,11.4c0,2.7-0.7,4.6-2,6"/>
</g>
</svg>
