<?xml version="1.0" encoding="utf-8"?>
<svg version="1.1" id="Capa_1" xmlns="http://www.w3.org/2000/svg" xmlns:xlink="http://www.w3.org/1999/xlink" x="0px" y="0px"
	 width="100px" height="100px" viewBox="0 0 100 100" style="enable-background:new 0 0 100 100;" xml:space="preserve">
<style type="text/css">
	.st0{fill:#474749;}
	.st1{fill:none;stroke:#000000;stroke-width:3;stroke-linecap:round;stroke-linejoin:round;stroke-miterlimit:10;}
	.st2{fill:#2BDEE2;}
</style>
<g>
	<path class="st0" d="M54.8,64.2c-4.1,0.3-8.2,0.6-12.2-0.1c-1.3-0.2-2.7-0.6-3.7-1.5c-1.4-1.1-1.9-2.9-2.2-4.7
		c-0.2-1.3-0.3-2.6,0-3.8c0.8-3.1,4.2-5.4,7.4-4.8c-0.8-3.3,0-7.1,2.6-9.2c2.6-2.1,7.1-1.9,8.9,1c0-1.1,0.2-2.1,0.5-3.2
		c1.9-5.6,8.2-9.5,14-8.1c5.6,1.4,9.4,7.6,8.1,13.2c1.8-1.4,4.4,0,6.3,1.3c3.4,2.4,5.2,6.4,5.3,10.6c0,8.4-8,8.8-14.1,8.7
		C68.7,63.6,61.7,63.8,54.8,64.2z"/>
	<path class="st1" d="M36.1,59.9c-1.4-1.1-1.9-2.9-2.2-4.7c-0.2-1.3-0.3-2.6,0-3.8c0.8-3.1,4.2-5.4,7.4-4.8c-0.8-3.3,0-7.1,2.6-9.2
		c2.6-2.1,7.1-1.9,8.9,1c0-1.1,0.2-2.1,0.5-3.2c1.9-5.6,8.2-9.5,14-8.1c5.6,1.4,9.4,7.6,8.1,13.2c1.8-1.4,4.4,0,6.3,1.3
		c3.4,2.4,5.2,6.4,5.3,10.6c0,2.5-0.7,4.2-1.8,5.5"/>
	<path class="st2" d="M33,72.9c-4.4,0.3-8.8,0.7-13.2-0.1c-1.4-0.3-2.9-0.7-4-1.6c-1.5-1.2-2.1-3.2-2.4-5.1c-0.2-1.4-0.3-2.8,0-4.1
		c0.8-3.4,4.5-5.8,8-5.2c-0.9-3.5,0-7.7,2.8-10c2.8-2.3,7.7-2,9.6,1.1c0-1.2,0.2-2.3,0.6-3.4c2-6.1,8.9-10.3,15.1-8.8
		c6,1.5,10.1,8.2,8.7,14.2c2-1.5,4.8,0,6.8,1.4c3.7,2.6,5.7,6.9,5.7,11.4c0,9-8.6,9.5-15.2,9.4C48,72.2,40.5,72.4,33,72.9z"/>
	<path class="st1" d="M12.9,68.2c-1.5-1.2-2.1-3.2-2.4-5.1c-0.2-1.4-0.3-2.8,0-4.1c0.8-3.4,4.5-5.8,8-5.2c-0.9-3.5,0-7.7,2.8-10
		c2.8-2.3,7.7-2,9.6,1.1c0-1.2,0.2-2.3,0.6-3.4c2-6.1,8.9-10.3,15.1-8.8c6,1.5,10.1,8.2,8.7,14.2c2-1.5,4.8,0,6.8,1.4
		c3.7,2.6,5.7,6.9,5.7,11.4c0,2.7-0.7,4.6-2,6"/>
</g>
</svg>
