<?xml version="1.0" encoding="utf-8"?>
<svg version="1.1" id="Capa_1" xmlns="http://www.w3.org/2000/svg" xmlns:xlink="http://www.w3.org/1999/xlink" x="0px" y="0px"
	 width="100px" height="100px" viewBox="0 0 100 100" style="enable-background:new 0 0 100 100;" xml:space="preserve">
<style type="text/css">
	.st0{fill:#474749;}
	.st1{fill:none;stroke:#000000;stroke-width:3;stroke-linecap:round;stroke-linejoin:round;stroke-miterlimit:10;}
	.st2{fill:#2BDEE2;}
	.st3{fill:none;stroke:#000000;stroke-width:3;stroke-linecap:round;stroke-linejoin:round;}
	.st4{fill:none;stroke:#000000;stroke-width:3;stroke-linecap:round;stroke-linejoin:round;stroke-dasharray:4.41,4.41;}
	.st5{fill:none;stroke:#000000;stroke-width:3;stroke-linecap:round;stroke-linejoin:round;stroke-dasharray:4.8961,4.8961;}
	.st6{fill:none;stroke:#000000;stroke-width:3;stroke-linecap:round;stroke-linejoin:round;stroke-dasharray:6.2595,6.2595;}
</style>
<g>
	<path class="st0" d="M53.4,54.9c-4.1,0.3-8.2,0.6-12.2-0.1c-1.3-0.2-2.7-0.6-3.7-1.5c-1.4-1.1-1.9-2.9-2.2-4.7
		c-0.2-1.3-0.3-2.6,0-3.8c0.8-3.1,4.2-5.4,7.4-4.8c-0.8-3.3,0-7.1,2.6-9.2s7.1-1.9,8.9,1c0-1.1,0.2-2.1,0.5-3.2
		c1.9-5.6,8.2-9.5,14-8.1c5.6,1.4,9.4,7.6,8.1,13.2c1.8-1.4,4.4,0,6.3,1.3c3.4,2.4,5.2,6.4,5.3,10.6c0,8.4-8,8.8-14.1,8.7
		C67.3,54.2,60.3,54.4,53.4,54.9z"/>
	<path class="st1" d="M34.7,50.5c-1.4-1.1-1.9-2.9-2.2-4.7c-0.2-1.3-0.3-2.6,0-3.8c0.8-3.1,4.2-5.4,7.4-4.8c-0.8-3.3,0-7.1,2.6-9.2
		c2.6-2.1,7.1-1.9,8.9,1c0-1.1,0.2-2.1,0.5-3.2c1.9-5.6,8.2-9.5,14-8.1c5.6,1.4,9.4,7.6,8.1,13.2c1.8-1.4,4.4,0,6.3,1.3
		c3.4,2.4,5.2,6.4,5.3,10.6c0,2.5-0.7,4.2-1.8,5.5"/>
	<path class="st2" d="M34.4,58.8c-4.4,0.3-8.8,0.7-13.2-0.1c-1.4-0.3-2.9-0.7-4-1.6c-1.5-1.2-2.1-3.2-2.4-5.1
		c-0.2-1.4-0.3-2.8,0-4.1c0.8-3.4,4.5-5.8,8-5.2c-0.9-3.5,0-7.7,2.8-10c2.8-2.3,7.7-2,9.6,1.1c0-1.2,0.2-2.3,0.6-3.4
		c2-6.1,8.9-10.3,15.1-8.8c6,1.5,10.1,8.2,8.7,14.2c2-1.5,4.8,0,6.8,1.4c3.7,2.6,5.7,6.9,5.7,11.4c0,9-8.6,9.5-15.2,9.4
		C49.4,58,41.9,58.3,34.4,58.8z"/>
	<path class="st1" d="M14.2,54c-1.5-1.2-2.1-3.2-2.4-5.1c-0.2-1.4-0.3-2.8,0-4.1c0.8-3.4,4.5-5.8,8-5.2c-0.9-3.5,0-7.7,2.8-10
		s7.7-2,9.6,1.1c0-1.2,0.2-2.3,0.6-3.4c2-6.1,8.9-10.3,15.1-8.8c6,1.5,10.1,8.2,8.7,14.2c2-1.5,4.8,0,6.8,1.4
		c3.7,2.6,5.7,6.9,5.7,11.4c0,2.7-0.7,4.6-2,6"/>
	<g>
		<g>
			<g>
				<line class="st3" x1="24.3" y1="44.3" x2="24.8" y2="46.7"/>
				<line class="st4" x1="25.8" y1="51" x2="29.1" y2="66.1"/>
				<line class="st3" x1="29.6" y1="68.3" x2="30.2" y2="70.7"/>
			</g>
		</g>
		<g>
			<g>
				<line class="st3" x1="35.1" y1="44.3" x2="35.6" y2="46.7"/>
				<line class="st5" x1="36.6" y1="51.5" x2="42.4" y2="77.8"/>
				<line class="st3" x1="42.9" y1="80.2" x2="43.4" y2="82.7"/>
			</g>
		</g>
		<g>
			<g>
				<line class="st3" x1="46.4" y1="44.3" x2="46.9" y2="46.7"/>
				<line class="st5" x1="48" y1="51.5" x2="53.7" y2="77.8"/>
				<line class="st3" x1="54.2" y1="80.2" x2="54.8" y2="82.7"/>
			</g>
		</g>
		<g>
			<g>
				<line class="st3" x1="57.2" y1="44.3" x2="57.8" y2="46.7"/>
				<line class="st6" x1="59.2" y1="52.8" x2="61.3" y2="62"/>
				<line class="st3" x1="61.9" y1="65.1" x2="62.5" y2="67.5"/>
			</g>
		</g>
	</g>
</g>
</svg>
