<?xml version="1.0" encoding="utf-8"?>
<svg version="1.1" id="Capa_1" xmlns="http://www.w3.org/2000/svg" xmlns:xlink="http://www.w3.org/1999/xlink" x="0px" y="0px"
	 width="100px" height="100px" viewBox="0 0 100 100" style="enable-background:new 0 0 100 100;" xml:space="preserve">
<style type="text/css">
	.st0{fill:#EC6E4C;}
	.st1{fill:none;stroke:#000000;stroke-width:3;stroke-linecap:round;stroke-linejoin:round;stroke-miterlimit:10;}
	.st2{fill:#2BDEE2;}
	.st3{fill:none;stroke:#000000;stroke-width:3;stroke-linecap:round;stroke-linejoin:round;}
	.st4{fill:none;stroke:#000000;stroke-width:3;stroke-linecap:round;stroke-linejoin:round;stroke-dasharray:4.41,4.41;}
	.st5{fill:none;stroke:#000000;stroke-width:3;stroke-linecap:round;stroke-linejoin:round;stroke-dasharray:4.8961,4.8961;}
	.st6{fill:none;stroke:#000000;stroke-width:3;stroke-linecap:round;stroke-linejoin:round;stroke-dasharray:6.2595,6.2595;}
</style>
<g>
	<circle class="st0" cx="47.4" cy="40.8" r="15.8"/>
	<g>
		<circle class="st1" cx="44.3" cy="37.8" r="15.8"/>
		<line class="st1" x1="36.7" y1="23.9" x2="28.8" y2="9.4"/>
		<line class="st1" x1="48.8" y1="22.6" x2="53.5" y2="6.7"/>
		<line class="st1" x1="58.2" y1="30.2" x2="72.8" y2="22.3"/>
		<line class="st1" x1="30.4" y1="45.4" x2="15.9" y2="53.4"/>
		<line class="st1" x1="29.1" y1="33.4" x2="13.2" y2="28.7"/>
	</g>
	<path class="st2" d="M49.1,69.4c-4.4,0.3-8.8,0.7-13.2-0.1c-1.4-0.3-2.9-0.7-4-1.6c-1.5-1.2-2.1-3.2-2.4-5.1
		c-0.2-1.4-0.3-2.8,0-4.1c0.8-3.4,4.5-5.8,8-5.2c-0.9-3.5,0-7.7,2.8-10c2.8-2.3,7.7-2,9.6,1.1c0-1.2,0.2-2.3,0.6-3.4
		c2-6.1,8.9-10.3,15.1-8.8c6,1.5,10.1,8.2,8.7,14.2c2-1.5,4.8,0,6.8,1.4c3.7,2.6,5.7,6.9,5.7,11.4c0,9-8.6,9.5-15.2,9.4
		C64.1,68.7,56.6,68.9,49.1,69.4z"/>
	<path class="st1" d="M28.9,64.7c-1.5-1.2-2.1-3.2-2.4-5.1c-0.2-1.4-0.3-2.8,0-4.1c0.8-3.4,4.5-5.8,8-5.2c-0.9-3.5,0-7.7,2.8-10
		c2.8-2.3,7.7-2,9.6,1.1c0-1.2,0.2-2.3,0.6-3.4c2-6.1,8.9-10.3,15.1-8.8c6,1.5,10.1,8.2,8.7,14.2c2-1.5,4.8,0,6.8,1.4
		c3.7,2.6,5.7,6.9,5.7,11.4c0,2.7-0.7,4.6-2,6"/>
	<g>
		<g>
			<g>
				<line class="st3" x1="38.9" y1="54.9" x2="39.5" y2="57.4"/>
				<line class="st4" x1="40.5" y1="61.7" x2="43.8" y2="76.7"/>
				<line class="st3" x1="44.3" y1="78.9" x2="44.9" y2="81.3"/>
			</g>
		</g>
		<g>
			<g>
				<line class="st3" x1="49.7" y1="54.9" x2="50.3" y2="57.4"/>
				<line class="st5" x1="51.3" y1="62.2" x2="57.1" y2="88.5"/>
				<line class="st3" x1="57.6" y1="90.9" x2="58.1" y2="93.3"/>
			</g>
		</g>
		<g>
			<g>
				<line class="st3" x1="61.1" y1="54.9" x2="61.6" y2="57.4"/>
				<line class="st5" x1="62.6" y1="62.2" x2="68.4" y2="88.5"/>
				<line class="st3" x1="68.9" y1="90.9" x2="69.4" y2="93.3"/>
			</g>
		</g>
		<g>
			<g>
				<line class="st3" x1="71.9" y1="54.9" x2="72.5" y2="57.4"/>
				<line class="st6" x1="73.9" y1="63.5" x2="75.9" y2="72.6"/>
				<line class="st3" x1="76.6" y1="75.7" x2="77.2" y2="78.1"/>
			</g>
		</g>
	</g>
</g>
</svg>
