<?xml version="1.0" encoding="utf-8"?>
<svg version="1.1" id="Capa_1" xmlns="http://www.w3.org/2000/svg" xmlns:xlink="http://www.w3.org/1999/xlink" x="0px" y="0px"
	 width="100px" height="100px" viewBox="0 0 100 100" style="enable-background:new 0 0 100 100;" xml:space="preserve">
<style type="text/css">
	.st0{fill:#535355;}
	.st1{fill:#2BDEE2;}
</style>
<g>
	<path class="st0" d="M64.1,62.3c0,1.5,1.1,3.8-1.3,4.2c-1.7,0.3-2.2-1.6-2.4-3.2c-0.2-1.1-0.7-2.2-1-3.3c-0.4-1.8-1.4-3.1-3.2-3.3
		c-1-0.1-2,0.4-2.4,1.4c-0.8,1.9-0.1,3.5,1.5,4.8c0.9,0.8,1.7,1.6,2.5,2.4c0.9,0.9,2.4,1.9,1.3,3.3c-1.3,1.7-2.6,0.5-3.7-0.6
		c-0.3-0.3-0.8-0.5-1.2-0.8c-1.4,1.4,0.5,4.7-2.4,4.7c-3,0-1.3-3.2-2.6-4.9c-0.6,0.6-1.2,1.1-1.8,1.6c-1,0.8-2.1,1.2-3,0
		c-0.7-1-0.2-1.9,0.6-2.6c1.3-1.3,2.6-2.6,3.9-3.9c1.2-1.2,1.3-2.7,0.7-4.1c-0.4-1-1.5-1.4-2.5-1.3c-1.4,0.2-2.4,1-2.8,2.5
		c-0.3,1-0.4,2-0.9,2.9c-0.9,1.5,0,4.8-3,4.4c-2.6-0.3-0.5-3.2-1.4-4.5c-1.7-0.8-3.5,2.6-4.8,0c-1.5-2.9,2.1-2.7,3.2-4.4
		c-1-0.4-1.9-0.8-2.9-1.2c-1-0.4-1.8-1.1-1.4-2.3c0.4-1.1,1.4-1.4,2.5-1.1c1.9,0.5,3.8,1.1,5.8,1.4c2.2,0.4,4.2-0.2,4.2-2.8
		c0-2.3-1.9-2.9-3.9-2.6c-1.5,0.2-2.9,0.7-4.4,1.1c-1.6,0.4-3.5,1.4-4.2-0.9c-0.6-2.1,1.7-2,2.9-2.6c0.4-0.2,0.9-0.5,1.3-0.7
		c-0.9-1.6-4.5-1.5-3.2-4.2c1.1-2.4,2.8-0.2,4.2,0.2c1.2,0.4,1.7,0.1,1-1.2c0.1-1.3-1-3.3,1.3-3.7c2.2-0.4,2.1,1.6,2.5,3
		c0.4,1.4,1,2.8,1.3,4.3c0.4,1.5,1.5,2.3,2.8,2.4c0.8,0.1,2.1-0.5,2.4-1.2c0.7-1.3,0.6-2.9-0.6-4.1c-1.1-1.1-2.2-2.1-3.2-3.2
		c-0.9-0.9-2.4-1.9-1.3-3.3c1.3-1.7,2.6-0.5,3.7,0.6c0.3,0.3,0.8,0.5,1.2,0.7c1.1-1.6-0.4-4.8,2.5-4.7c2.5,0.1,1.4,2.9,1.9,4.5
		c1.6,0.5,1.8-1.1,2.8-1.5c0.8-0.3,1.6-0.5,2.3,0.2c0.9,0.9,0.6,1.8-0.2,2.6c-1.4,1.5-2.8,2.9-4.2,4.3c-1.1,1.1-1.2,2.4-0.8,3.7
		c0.4,1.2,1.5,1.8,2.7,1.6c1.4-0.2,2.4-1.1,2.8-2.5c0.3-1.1,0.7-2.2,1.1-3.3c0.5-1.6,0.1-4.4,2.8-3.8c2.8,0.6,0.4,3.1,0.9,4.7
		c1.8,1.2,3.8-3.2,5.4-0.2c1.2,2.4-1.9,2.6-2.8,4c0.4,1.1,1.5,1.1,2.4,1.4c1,0.4,1.8,1.1,1.4,2.3c-0.4,1.3-1.5,1.5-2.8,1.2
		c-2.1-0.6-4.2-1.3-6.3-1.5c-1.8-0.2-3.3,0.8-3.3,2.9c0.1,2.1,1.7,2.8,3.4,2.7c1.6-0.1,3.2-0.8,4.8-1.2c1.4-0.3,3.1-1.3,3.9,0.6
		c0.9,2.1-1.2,2.3-2.5,2.9c-0.4,0.2-0.8,0.4-1.2,0.6c0.6,1.8,4.4,1.8,2.7,4.6c-1.4,2.2-2.8-0.3-4.2-0.6c-0.4,0-0.7,0-1.1-0.1
		C63.9,61.6,64,61.9,64.1,62.3z M51.4,48.8c-1.8,0.3-2.7,1.3-2.5,3.1c0.1,1.6,1.1,2.4,2.6,2.4c1.7,0,2.8-1,2.7-2.8
		C54.2,49.6,53.1,48.9,51.4,48.8z"/>
	<path class="st1" d="M62.1,60.3c0,1.5,1.1,3.8-1.3,4.2c-1.7,0.3-2.2-1.6-2.4-3.2c-0.2-1.1-0.7-2.2-1-3.3c-0.4-1.8-1.4-3.1-3.2-3.3
		c-1-0.1-2,0.4-2.4,1.4c-0.8,1.9-0.1,3.5,1.5,4.8c0.9,0.8,1.7,1.6,2.5,2.4c0.9,0.9,2.4,1.9,1.3,3.3c-1.3,1.7-2.6,0.5-3.7-0.6
		c-0.3-0.3-0.8-0.5-1.2-0.8c-1.4,1.4,0.5,4.7-2.4,4.7c-3,0-1.3-3.2-2.6-4.9c-0.6,0.6-1.2,1.1-1.8,1.6c-1,0.8-2.1,1.2-3,0
		c-0.7-1-0.2-1.9,0.6-2.6c1.3-1.3,2.6-2.6,3.9-3.9c1.2-1.2,1.3-2.7,0.7-4.1c-0.4-1-1.5-1.4-2.5-1.3c-1.4,0.2-2.4,1-2.8,2.5
		c-0.3,1-0.4,2-0.9,2.9c-0.9,1.5,0,4.8-3,4.4c-2.6-0.3-0.5-3.2-1.4-4.5c-1.7-0.8-3.5,2.6-4.8,0c-1.5-2.9,2.1-2.7,3.2-4.4
		c-1-0.4-1.9-0.8-2.9-1.2c-1-0.4-1.8-1.1-1.4-2.3c0.4-1.1,1.4-1.4,2.5-1.1c1.9,0.5,3.8,1.1,5.8,1.4c2.2,0.4,4.2-0.2,4.2-2.8
		c0-2.3-1.9-2.9-3.9-2.6c-1.5,0.2-2.9,0.7-4.4,1.1c-1.6,0.4-3.5,1.4-4.2-0.9c-0.6-2.1,1.7-2,2.9-2.6c0.4-0.2,0.9-0.5,1.3-0.7
		c-0.9-1.6-4.5-1.5-3.2-4.2c1.1-2.4,2.8-0.2,4.2,0.2c1.2,0.4,1.7,0.1,1-1.2c0.1-1.3-1-3.3,1.3-3.7c2.2-0.4,2.1,1.6,2.5,3
		c0.4,1.4,1,2.8,1.3,4.3c0.4,1.5,1.5,2.3,2.8,2.4c0.8,0.1,2.1-0.5,2.4-1.2c0.7-1.3,0.6-2.9-0.6-4.1c-1.1-1.1-2.2-2.1-3.2-3.2
		c-0.9-0.9-2.4-1.9-1.3-3.3c1.3-1.7,2.6-0.5,3.7,0.6c0.3,0.3,0.8,0.5,1.2,0.7c1.1-1.6-0.4-4.8,2.5-4.7c2.5,0.1,1.4,2.9,1.9,4.5
		c1.6,0.5,1.8-1.1,2.8-1.5c0.8-0.3,1.6-0.5,2.3,0.2c0.9,0.9,0.6,1.8-0.2,2.6c-1.4,1.5-2.8,2.9-4.2,4.3c-1.1,1.1-1.2,2.4-0.8,3.7
		c0.4,1.2,1.5,1.8,2.7,1.6c1.4-0.2,2.4-1.1,2.8-2.5c0.3-1.1,0.7-2.2,1.1-3.3c0.5-1.6,0.1-4.4,2.8-3.8c2.8,0.6,0.4,3.1,0.9,4.7
		c1.8,1.2,3.8-3.2,5.4-0.2c1.2,2.4-1.9,2.6-2.8,4c0.4,1.1,1.5,1.1,2.4,1.4c1,0.4,1.8,1.1,1.4,2.3c-0.4,1.3-1.5,1.5-2.8,1.2
		c-2.1-0.6-4.2-1.3-6.3-1.5c-1.8-0.2-3.3,0.8-3.3,2.9c0.1,2.1,1.7,2.8,3.4,2.7c1.6-0.1,3.2-0.8,4.8-1.2c1.4-0.3,3.1-1.3,3.9,0.6
		c0.9,2.1-1.2,2.3-2.5,2.9c-0.4,0.2-0.8,0.4-1.2,0.6c0.6,1.8,4.4,1.8,2.7,4.6c-1.4,2.2-2.8-0.3-4.2-0.6c-0.4,0-0.7,0-1.1-0.1
		C61.9,59.6,62,59.9,62.1,60.3z M49.4,46.8c-1.8,0.3-2.7,1.3-2.5,3.1c0.1,1.6,1.1,2.4,2.6,2.4c1.7,0,2.8-1,2.7-2.8
		C52.2,47.6,51.1,46.9,49.4,46.8z"/>
	<g>
		<path d="M48.6,28.2c0,0,0.1,0,0.1,0c2.5,0.1,1.4,2.9,1.9,4.5c0.2,0.1,0.4,0.1,0.6,0.1c1.1,0,1.4-1.3,2.2-1.6
			c0.4-0.2,0.8-0.3,1.2-0.3c0.4,0,0.8,0.1,1.1,0.5c0.9,0.9,0.6,1.8-0.2,2.6c-1.4,1.5-2.8,2.9-4.2,4.3c-1.1,1.1-1.2,2.4-0.8,3.7
			c0.3,1.1,1.3,1.7,2.3,1.7c0.1,0,0.2,0,0.4,0c1.4-0.2,2.4-1.1,2.8-2.5c0.3-1.1,0.7-2.2,1.1-3.3c0.5-1.4,0.2-3.9,2.1-3.9
			c0.2,0,0.4,0,0.7,0.1c2.8,0.6,0.4,3.1,0.9,4.7c0.2,0.1,0.4,0.2,0.7,0.2c1.1,0,2.3-1.5,3.4-1.5c0.5,0,0.9,0.3,1.3,1.1
			c1.2,2.4-1.9,2.6-2.8,4c0.4,1.1,1.5,1.1,2.4,1.4c1,0.4,1.8,1.1,1.4,2.3c-0.3,1-0.9,1.3-1.7,1.3c-0.3,0-0.7-0.1-1.1-0.2
			c-2.1-0.6-4.2-1.3-6.3-1.5c-0.1,0-0.3,0-0.4,0c-1.6,0-2.9,1-2.8,2.9c0.1,2,1.6,2.7,3.2,2.7c0.1,0,0.2,0,0.2,0
			c1.6-0.1,3.2-0.8,4.8-1.2c0.8-0.2,1.6-0.5,2.4-0.5c0.6,0,1.2,0.3,1.6,1.1c0.9,2.1-1.2,2.3-2.5,2.9c-0.4,0.2-0.8,0.4-1.2,0.6
			c0.6,1.8,4.4,1.8,2.7,4.6c-0.4,0.7-0.8,0.9-1.3,0.9c-1,0-2-1.3-3-1.5c-0.4,0-0.7,0-1.1-0.1c0.1,0.3,0.2,0.7,0.3,1
			c0,1.5,1.1,3.8-1.3,4.2c-0.1,0-0.2,0-0.3,0c-1.5,0-1.9-1.7-2.1-3.2c-0.2-1.1-0.7-2.2-1-3.3c-0.4-1.8-1.4-3.1-3.2-3.3
			c-0.1,0-0.2,0-0.3,0c-0.9,0-1.8,0.5-2.2,1.4c-0.8,1.9-0.1,3.5,1.5,4.8c0.9,0.8,1.7,1.6,2.5,2.4c0.9,0.9,2.4,1.9,1.3,3.3
			c-0.5,0.6-0.9,0.8-1.4,0.8c-0.8,0-1.6-0.8-2.3-1.5c-0.3-0.3-0.8-0.5-1.2-0.8c-1.4,1.4,0.5,4.7-2.4,4.7c0,0,0,0,0,0
			c-2.9,0-1.2-3.2-2.6-4.9c-0.6,0.6-1.2,1.1-1.8,1.6c-0.5,0.4-1.1,0.8-1.7,0.8c-0.5,0-0.9-0.2-1.4-0.8c-0.7-1-0.2-1.9,0.6-2.6
			c1.3-1.3,2.6-2.6,3.9-3.9c1.2-1.2,1.3-2.7,0.7-4.1c-0.4-0.9-1.2-1.3-2.1-1.3c-0.1,0-0.3,0-0.4,0c-1.4,0.2-2.4,1-2.8,2.5
			c-0.3,1-0.4,2-0.9,2.9c-0.9,1.5-0.1,4.4-2.5,4.4c-0.1,0-0.3,0-0.5,0c-2.6-0.3-0.5-3.2-1.4-4.5c-0.2-0.1-0.4-0.1-0.6-0.1
			c-1.1,0-2.1,1.1-3,1.1c-0.4,0-0.9-0.3-1.2-1c-1.5-2.9,2.1-2.7,3.2-4.4c-1-0.4-1.9-0.8-2.9-1.2c-1-0.4-1.8-1.1-1.4-2.3
			c0.3-0.8,1-1.2,1.8-1.2c0.2,0,0.5,0,0.7,0.1c1.9,0.5,3.8,1.1,5.8,1.4c0.4,0.1,0.8,0.1,1.2,0.1c1.7,0,3-0.8,3-2.9
			c0-2-1.3-2.7-3-2.7c-0.3,0-0.6,0-0.9,0.1c-1.5,0.2-2.9,0.7-4.4,1.1c-0.8,0.2-1.7,0.6-2.5,0.6c-0.7,0-1.4-0.3-1.7-1.5
			c-0.6-2.1,1.7-2,2.9-2.6c0.4-0.2,0.9-0.5,1.3-0.7c-0.9-1.6-4.5-1.5-3.2-4.2c0.4-0.8,0.8-1.1,1.3-1.1c0.9,0,1.9,1.1,2.9,1.3
			c0.3,0.1,0.6,0.2,0.8,0.2c0.6,0,0.7-0.4,0.1-1.3c0.1-1.3-1-3.3,1.3-3.7c0.2,0,0.4,0,0.5,0c1.6,0,1.6,1.7,2,3
			c0.4,1.4,1,2.8,1.3,4.3c0.4,1.5,1.5,2.3,2.8,2.4c0.1,0,0.1,0,0.2,0c0.8,0,2-0.6,2.3-1.2c0.7-1.3,0.6-2.9-0.6-4.1
			c-1.1-1.1-2.2-2.1-3.2-3.2c-0.9-0.9-2.4-1.9-1.3-3.3c0.5-0.6,0.9-0.9,1.4-0.9c0.8,0,1.6,0.8,2.3,1.4c0.3,0.3,0.8,0.5,1.2,0.7
			C47.2,31.4,45.8,28.2,48.6,28.2 M48.5,51.3C48.5,51.3,48.5,51.3,48.5,51.3c1.8,0,2.8-1,2.8-2.8c0-1.8-1.2-2.6-2.8-2.7
			c-1.8,0.3-2.7,1.3-2.5,3.1C46,50.4,47,51.3,48.5,51.3 M48.6,25.2c-1.6,0-3.5,0.6-4.4,2.9c-0.5-0.2-1-0.3-1.6-0.3
			c-1,0-2.5,0.4-3.8,2.1c-0.2,0.3-0.4,0.6-0.6,1c-0.2,0-0.3,0-0.5,0c-0.3,0-0.7,0-1,0.1c-1.3,0.2-3.3,1-3.8,3.5
			c-0.2,0-0.5-0.1-0.8-0.1c-0.8,0-2.8,0.3-4,2.8c-0.7,1.4-1,3.2,0.3,4.9c-2,1.5-1.8,3.5-1.5,4.8c0.2,0.7,0.5,1.2,0.8,1.7
			c-0.3,0.4-0.5,0.8-0.7,1.3c-0.6,1.6-0.5,3.7,1.4,5.2c-1.4,1.8-1,3.7-0.2,5.1c1.2,2.3,2.9,2.6,3.9,2.6c0.3,0,0.5,0,0.8-0.1
			c0.4,2.7,2.5,3.4,3.9,3.6c0.3,0,0.6,0.1,0.9,0.1c0.2,0,0.4,0,0.6,0c0.2,0.5,0.4,0.8,0.6,1c1,1.3,2.3,2,3.8,2
			c0.6,0,1.1-0.1,1.7-0.3c0.9,2.2,2.8,2.8,4.4,2.8c0,0,0,0,0.1,0c1.6,0,3.5-0.6,4.3-2.7c0.5,0.2,1,0.3,1.6,0.3c1,0,2.5-0.3,3.8-2
			c0.2-0.3,0.4-0.6,0.6-1c0.2,0,0.4,0,0.6,0c0.3,0,0.5,0,0.8-0.1c1.4-0.2,3.4-1,3.9-3.6c0.2,0,0.5,0.1,0.7,0.1
			c0.9,0,2.5-0.3,3.8-2.3c0.8-1.3,1.1-2.6,0.8-3.8c-0.2-0.7-0.4-1.2-0.8-1.7c0.5-0.4,1-1,1.3-1.7c0.3-0.8,0.6-2.1-0.1-3.7
			c-0.2-0.4-0.3-0.7-0.5-1c0.3-0.5,0.6-1,0.8-1.6c0.6-1.9,0-3.7-1.5-4.9c1.4-1.8,1-3.6,0.3-5c-1.2-2.4-3-2.8-4-2.8
			c-0.2,0-0.4,0-0.7,0.1c-0.1-0.4-0.2-0.9-0.5-1.3c-0.6-1.1-1.7-1.8-3.2-2.1c-0.4-0.1-0.9-0.1-1.3-0.1c-0.1,0-0.2,0-0.3,0
			c-0.2-0.6-0.6-1.2-1.2-1.7c-0.9-0.9-2-1.3-3.2-1.3c-0.5,0-1.1,0.1-1.6,0.3c-0.8-2.3-2.6-2.9-4.2-2.9
			C48.7,25.2,48.6,25.2,48.6,25.2L48.6,25.2z M48.6,48.8C48.6,48.8,48.6,48.8,48.6,48.8L48.6,48.8L48.6,48.8z"/>
	</g>
</g>
</svg>
